<mxfile host="app.diagrams.net" modified="2023-05-27T18:10:48.944Z" agent="Mozilla/5.0 (Windows NT 10.0; Win64; x64) AppleWebKit/537.36 (KHTML, like Gecko) Chrome/113.0.0.0 Safari/537.36" etag="iXDA5vIfO0weBoWwBKY0" version="21.2.1" type="device">
  <diagram name="Page-1" id="V6NnG6JSAPqMCgrBSv0S">
    <mxGraphModel dx="660" dy="948" grid="1" gridSize="10" guides="1" tooltips="1" connect="1" arrows="1" fold="1" page="1" pageScale="1" pageWidth="850" pageHeight="1100" math="0" shadow="0">
      <root>
        <mxCell id="0" />
        <mxCell id="1" parent="0" />
        <mxCell id="6-HuteZujA5nTzYitCQp-4" value="Ielādēt attēlus ar palielinātu kvalitāti" style="rounded=0;whiteSpace=wrap;html=1;" parent="1" vertex="1">
          <mxGeometry x="360" y="100" width="160" height="60" as="geometry" />
        </mxCell>
        <mxCell id="HjzhRC1Lx77mMaztNlXU-28" value="pirmajam attēlam ir &lt;br&gt;mazāks rezultāts" style="rhombus;whiteSpace=wrap;html=1;" vertex="1" parent="1">
          <mxGeometry x="360" y="300" width="160" height="80" as="geometry" />
        </mxCell>
        <mxCell id="HjzhRC1Lx77mMaztNlXU-32" value="" style="endArrow=classic;html=1;rounded=0;exitX=0.5;exitY=1;exitDx=0;exitDy=0;entryX=0.5;entryY=0;entryDx=0;entryDy=0;" edge="1" parent="1" target="HjzhRC1Lx77mMaztNlXU-28">
          <mxGeometry width="50" height="50" relative="1" as="geometry">
            <mxPoint x="440" y="260" as="sourcePoint" />
            <mxPoint x="660" y="350" as="targetPoint" />
          </mxGeometry>
        </mxCell>
        <mxCell id="HjzhRC1Lx77mMaztNlXU-33" value="parādīt, ka &lt;b&gt;pirmais &lt;/b&gt;attēls ir tuvāk oriģinālam" style="rounded=0;whiteSpace=wrap;html=1;" vertex="1" parent="1">
          <mxGeometry x="200" y="380" width="160" height="60" as="geometry" />
        </mxCell>
        <mxCell id="HjzhRC1Lx77mMaztNlXU-34" value="parādīt, ka &lt;b&gt;otrais &lt;/b&gt;attēls ir tuvāk oriģinālam" style="rounded=0;whiteSpace=wrap;html=1;" vertex="1" parent="1">
          <mxGeometry x="520" y="380" width="160" height="60" as="geometry" />
        </mxCell>
        <mxCell id="HjzhRC1Lx77mMaztNlXU-35" value="" style="endArrow=classic;html=1;rounded=0;exitX=1;exitY=0.5;exitDx=0;exitDy=0;entryX=0.5;entryY=0;entryDx=0;entryDy=0;" edge="1" parent="1" source="HjzhRC1Lx77mMaztNlXU-28" target="HjzhRC1Lx77mMaztNlXU-34">
          <mxGeometry width="50" height="50" relative="1" as="geometry">
            <mxPoint x="600" y="370" as="sourcePoint" />
            <mxPoint x="650" y="320" as="targetPoint" />
            <Array as="points">
              <mxPoint x="600" y="340" />
            </Array>
          </mxGeometry>
        </mxCell>
        <mxCell id="HjzhRC1Lx77mMaztNlXU-36" value="" style="endArrow=classic;html=1;rounded=0;exitX=0;exitY=0.5;exitDx=0;exitDy=0;entryX=0.5;entryY=0;entryDx=0;entryDy=0;" edge="1" parent="1" source="HjzhRC1Lx77mMaztNlXU-28" target="HjzhRC1Lx77mMaztNlXU-33">
          <mxGeometry width="50" height="50" relative="1" as="geometry">
            <mxPoint x="290" y="330" as="sourcePoint" />
            <mxPoint x="340" y="280" as="targetPoint" />
            <Array as="points">
              <mxPoint x="280" y="340" />
            </Array>
          </mxGeometry>
        </mxCell>
        <mxCell id="HjzhRC1Lx77mMaztNlXU-37" value="Jā" style="text;html=1;strokeColor=none;fillColor=none;align=center;verticalAlign=middle;whiteSpace=wrap;rounded=0;" vertex="1" parent="1">
          <mxGeometry x="300" y="310" width="60" height="30" as="geometry" />
        </mxCell>
        <mxCell id="HjzhRC1Lx77mMaztNlXU-38" value="Nē" style="text;html=1;strokeColor=none;fillColor=none;align=center;verticalAlign=middle;whiteSpace=wrap;rounded=0;" vertex="1" parent="1">
          <mxGeometry x="520" y="310" width="60" height="30" as="geometry" />
        </mxCell>
        <mxCell id="HjzhRC1Lx77mMaztNlXU-39" value="palaist attēlus algoritmā ar iepriekš atlasītiem modeļa un diapazona failiem" style="rounded=0;whiteSpace=wrap;html=1;" vertex="1" parent="1">
          <mxGeometry x="560" y="100" width="160" height="60" as="geometry" />
        </mxCell>
        <mxCell id="HjzhRC1Lx77mMaztNlXU-40" value="" style="endArrow=classic;html=1;rounded=0;exitX=1;exitY=0.5;exitDx=0;exitDy=0;entryX=0;entryY=0.5;entryDx=0;entryDy=0;" edge="1" parent="1" source="6-HuteZujA5nTzYitCQp-4" target="HjzhRC1Lx77mMaztNlXU-39">
          <mxGeometry width="50" height="50" relative="1" as="geometry">
            <mxPoint x="590" y="270" as="sourcePoint" />
            <mxPoint x="640" y="220" as="targetPoint" />
          </mxGeometry>
        </mxCell>
        <mxCell id="HjzhRC1Lx77mMaztNlXU-41" value="&amp;nbsp;iegūt statistikas pazīmes un normalizēt tos&amp;nbsp;" style="rounded=0;whiteSpace=wrap;html=1;" vertex="1" parent="1">
          <mxGeometry x="560" y="200" width="160" height="60" as="geometry" />
        </mxCell>
        <mxCell id="HjzhRC1Lx77mMaztNlXU-42" value="iesniegt modelī normalizētas pazīmes&amp;nbsp;, rezultāta aprēķināšanai&amp;nbsp;" style="rounded=0;whiteSpace=wrap;html=1;" vertex="1" parent="1">
          <mxGeometry x="360" y="200" width="160" height="60" as="geometry" />
        </mxCell>
        <mxCell id="HjzhRC1Lx77mMaztNlXU-43" value="" style="endArrow=classic;html=1;rounded=0;exitX=0.5;exitY=1;exitDx=0;exitDy=0;entryX=0.5;entryY=0;entryDx=0;entryDy=0;" edge="1" parent="1" source="HjzhRC1Lx77mMaztNlXU-39" target="HjzhRC1Lx77mMaztNlXU-41">
          <mxGeometry width="50" height="50" relative="1" as="geometry">
            <mxPoint x="530" y="140" as="sourcePoint" />
            <mxPoint x="570" y="140" as="targetPoint" />
          </mxGeometry>
        </mxCell>
        <mxCell id="HjzhRC1Lx77mMaztNlXU-44" value="" style="endArrow=classic;html=1;rounded=0;exitX=0;exitY=0.5;exitDx=0;exitDy=0;entryX=1;entryY=0.5;entryDx=0;entryDy=0;" edge="1" parent="1" source="HjzhRC1Lx77mMaztNlXU-41" target="HjzhRC1Lx77mMaztNlXU-42">
          <mxGeometry width="50" height="50" relative="1" as="geometry">
            <mxPoint x="650" y="170" as="sourcePoint" />
            <mxPoint x="650" y="210" as="targetPoint" />
          </mxGeometry>
        </mxCell>
      </root>
    </mxGraphModel>
  </diagram>
</mxfile>
